# xmcd
#
# Track frame offsets:
#	150
#	15080
#	29320
#	45714
#	62471
#	83728
#	98721
#	115700
#	131710
#	146334
#	164804
#	177844
#	193740
#	208736
#	226984
#
# Disc length: 3233 seconds
#
# Revision: 1
# Processed by: cddbd v1.5.2PL0 Copyright (c) Steve Scherf et al.
# Submitted via: audiograbber 1.83.01
#
DISCID=c10c9f0f
DTITLE=Chartbuster - 60436
DYEAR=2010
DGENRE=Bluegrass
TTITLE0=Jason Aldean - Crazy Town
TTITLE1=Little Big Town - Little White Church
TTITLE2=Rodney Atkins - Farmer's Daughter
TTITLE3=Gloriana - World Is Ours Tonight, The
TTITLE4=Jake Owen - Tell Me
TTITLE5=Kenny Chesney - This Is Our Moment
TTITLE6=Laura Bell Bunday - Giddy On Up
TTITLE7=Bucky Covington - Fathers Love ( The Only Way He Knew How), A
TTITLE8=Band Perry, The - Hip To My Heart
TTITLE9=Josh Thompson - Way Out Here
TTITLE10=Justin Moore - Backwoods
TTITLE11=Coldwater Jane - Bring On The Love
TTITLE12=Danny Gokey - My Best Days Are Ahead Of Me
TTITLE13=Miranda Lambert - House That Built Me, The
TTITLE14=Trailer Choir, The - Rollin' Through The Sunshine
EXTD=
EXTT0=
EXTT1=
EXTT2=
EXTT3=
EXTT4=
EXTT5=
EXTT6=
EXTT7=
EXTT8=
EXTT9=
EXTT10=
EXTT11=
EXTT12=
EXTT13=
EXTT14=
PLAYORDER=
